<?xml version="1.0" encoding="UTF-8"?>
<svg id="Layer_1" data-name="Layer 1" xmlns="http://www.w3.org/2000/svg" viewBox="0 0 2000 745.45">
  <defs>
    <style>
      .cls-1 {
        fill: #e20a13;
      }

      .cls-2 {
        fill: #fff;
      }

      .cls-3 {
        fill: #010300;
      }
    </style>
  </defs>
  <rect class="cls-1" y="0" width="2000" height="454.54"/>
  <rect class="cls-3" y="448.49" width="2000" height="296.96"/>
  <rect class="cls-2" x="487.28" y="532.12" width="30.9" height="129.1"/>
  <path class="cls-2" d="M751.51,530.3c7.87,0,15.16.6,21.81,1.82,6.07,1.22,12.12,3.04,16.98,5.45l-6.07,20.62c-4.83-2.44-9.69-4.26-14.54-4.85-4.83-1.22-10.31-1.82-14.54-1.82-5.45,0-10.31.6-15.14,2.42-4.85,1.82-9.11,4.26-12.75,8.49-3.64,3.64-6.65,8.49-8.47,13.94-1.82,5.45-3.04,12.72-3.04,20.61,0,14.54,3.04,25.45,9.69,33.32,6.07,7.89,15.16,11.53,27.29,11.53,3.01,0,5.45,0,7.87-.62,2.44,0,4.26-.6,5.45-1.2v-27.89h-19.99v-23.03h50.3v66.06c-5.45,2.44-11.5,4.26-18.77,5.45-7.27,1.22-15.16,2.44-24.25,2.44-9.69,0-18.8-1.22-27.26-4.26-8.49-3.01-15.76-7.27-21.83-12.72-6.05-5.45-10.91-12.72-14.54-20.59-3.63-8.49-5.45-17.58-5.45-28.48s1.82-20.61,5.45-28.48c3.64-7.89,8.49-15.16,14.54-21.21,6.07-5.48,13.34-9.71,21.83-12.75,6.65-3.01,15.76-4.23,25.45-4.23"/>
  <rect class="cls-2" x="958.8" y="532.12" width="30.9" height="129.1"/>
  <polygon class="cls-2" points="1254.54 532.12 1254.54 556.37 1219.39 556.37 1219.39 661.22 1188.49 661.22 1188.49 556.37 1153.93 556.37 1153.93 532.12 1254.54 532.12"/>
  <path class="cls-2" d="M1465.44,532.13h33.34l46.66,129.07h-33.32l-9.11-27.86h-43.62l-9.09,27.86h-32.74l47.88-129.07ZM1466.66,610.91h29.7l-4.85-15.76c-1.82-4.85-3.04-10.31-4.85-16.36-1.82-5.45-3.01-10.91-4.23-15.76h-.6c-1.22,4.85-3.04,9.69-4.85,15.76-1.82,5.45-3.64,10.91-4.85,16.36l-5.45,15.76Z"/>
  <polygon class="cls-2" points="1709.09 532.12 1739.99 532.12 1739.99 636.97 1790.9 636.97 1790.9 661.22 1709.09 661.22 1709.09 532.12"/>
  <path class="cls-2" d="M255.19,532.12c10.24,0,19.53,1.31,27.86,3.89,8.35,2.6,15.48,6.49,21.42,11.69,5.94,5.2,10.51,11.64,13.74,19.37,3.2,7.71,4.81,16.7,4.81,26.94,0,11.48-1.91,21.42-5.73,29.82s-9.04,15.37-15.69,20.89c-6.63,5.54-14.38,9.69-23.24,12.4-8.88,2.74-18.31,4.1-28.3,4.1h-40.98v-129.1h46.11ZM240.24,637.45h7.98c5.48,0,10.77-.69,15.9-2.05,5.11-1.36,9.59-3.73,13.41-7.06,3.82-3.36,6.9-7.82,9.23-13.44,2.32-5.59,3.47-12.56,3.47-20.89,0-12.42-3.47-21.9-10.45-28.39-6.97-6.49-16.4-9.73-28.28-9.73h-11.27v81.56Z"/>
  <path class="cls-2" d="M222.72,130.31h51.51l26.67,85.45c1.22,3.64,2.42,7.89,3.64,12.13,1.22,4.23,2.42,8.49,3.63,13.32,1.22,4.26,2.44,8.49,3.04,12.75,1.22,4.23,1.82,7.87,2.42,11.5h1.22c.6-3.04,1.22-6.67,2.42-10.91,1.22-4.23,1.82-8.49,3.04-13.34,1.22-4.83,2.42-9.09,3.63-13.32,1.22-4.23,2.42-8.49,3.04-12.13l26.04-85.45h51.51l13.94,187.28h-38.17c-1.22-20.62-2.44-41.23-3.64-61.82-1.22-20.61-1.82-41.23-2.44-62.42v-24.25h-1.2c-2.44,10.91-5.45,22.41-8.49,33.94-3.04,12.13-6.07,22.43-8.49,30.9l-26.67,83.04h-31.52l-27.26-83.63c-3.64-10.91-6.67-21.81-9.69-33.94-3.04-12.12-5.48-22.43-7.29-30.9h-.6v22.41c0,7.89-.6,15.76-.6,23.03,0,7.89-.62,15.16-.62,22.43s-.6,13.94-1.2,20.59l-3.64,59.41h-37.59l13.34-186.06Z"/>
  <path class="cls-2" d="M573.63,286.68c9.09,0,16.98-.6,23.03-2.42,6.05-1.22,11.5-3.64,16.36-6.07l8.49,29.1c-4.85,3.01-11.53,5.45-19.99,7.27-8.49,2.42-19.4,3.01-31.52,3.01-13.94,0-27.26-2.42-38.79-6.65-12.12-4.26-22.43-10.31-30.9-18.8-8.49-7.87-15.16-18.18-20.02-29.7-4.83-11.5-7.27-24.85-7.27-39.39s2.44-27.26,7.27-38.79c4.85-11.5,10.93-21.21,19.4-29.68,8.49-7.89,18.8-14.56,30.92-18.8,12.13-4.23,25.45-6.67,40.61-6.67,12.72,0,23.03,1.22,31.5,3.64,8.49,2.44,15.16,4.85,20.02,7.89l-9.09,29.68c-4.85-2.42-10.93-4.83-16.98-6.65s-13.34-3.04-21.21-3.04-15.76,1.22-23.03,3.64c-7.27,2.42-13.32,6.05-18.8,10.91-5.45,4.85-9.69,11.53-12.72,19.4-3.01,7.89-4.83,17.58-4.83,28.48s1.2,19.99,4.23,27.89c3.04,7.87,7.27,14.54,12.13,19.4,5.45,4.85,11.5,9.09,18.18,11.5,6.67,2.44,14.54,4.85,23.03,4.85"/>
  <polygon class="cls-2" points="794.85 130.31 794.85 161.83 716.67 161.83 716.67 211.53 788.17 211.53 788.17 242.43 716.67 242.43 716.67 316.98 676.06 316.98 676.06 130.31 794.85 130.31"/>
  <path class="cls-2" d="M1116.06,130.31c14.54,0,27.89,1.82,39.39,5.45,12.12,3.64,21.81,9.71,30.3,16.98,8.49,7.27,15.16,16.96,20.02,27.89,4.83,10.91,7.27,24.23,7.27,38.77,0,16.98-3.04,31.52-8.49,43.65-5.45,12.13-13.34,22.43-22.43,30.3-9.69,7.89-20.59,13.94-33.34,17.58-12.72,3.64-26.04,5.45-40.59,5.45h-57.59v-186.06h65.46ZM1091.21,286.07h13.94c8.49,0,16.36-1.22,24.25-3.04,7.87-1.82,14.54-5.45,20.59-10.91,6.07-4.85,10.91-11.5,14.54-19.99,3.63-8.49,5.45-18.8,5.45-32.12,0-18.8-5.45-33.34-15.74-43.02-10.93-9.71-24.85-15.16-43.05-15.16h-19.4v124.24h-.6Z"/>
  <path class="cls-2" d="M884.55,130.3h42.43l69.09,187.28h-43.05l-14.54-43.02h-66.65l-14.56,43.02h-42.43l69.71-187.28ZM881.51,244.86h47.28l-8.49-24.85c-3.04-7.87-5.45-15.76-7.89-23.03-2.42-7.87-4.83-15.76-6.65-23.63h-.62c-2.42,7.27-4.83,15.14-7.27,23.03-2.42,7.87-5.45,15.76-7.87,23.63l-8.49,24.85Z"/>
  <polygon class="cls-2" points="1277.27 130.31 1316.66 203.04 1357.27 130.31 1401.51 130.31 1336.05 240.02 1336.05 316.98 1295.45 316.98 1295.45 240.02 1231.81 130.31 1277.27 130.31"/>
  <polygon class="cls-2" points="1450.6 130.31 1572.43 130.31 1572.43 161.83 1491.21 161.83 1491.21 204.86 1564.54 204.86 1564.54 235.76 1491.21 235.76 1491.21 286.08 1573.03 286.08 1573.03 317.6 1450.6 317.6 1450.6 130.31"/>
  <path class="cls-2" d="M1633.03,130.31h36.97l64.24,98.8c4.23,6.65,8.49,13.32,12.13,19.99,3.64,6.67,6.05,11.5,7.87,15.14h.62c-1.22-12.72-1.82-25.45-1.82-38.17v-95.76h37.57v187.28h-36.97l-60-90.93c-2.42-4.23-4.85-7.87-7.27-12.13-2.42-4.23-4.85-8.47-7.27-12.1-2.42-4.26-4.23-7.27-6.05-10.93-1.82-3.63-3.04-6.05-3.66-7.87h-.6c1.22,13.94,1.82,26.67,1.82,39.39v95.16h-38.17v-187.88h.6Z"/>
</svg>